<svg width="135" height="32" viewBox="0 0 135 32" fill="none" xmlns="http://www.w3.org/2000/svg">
<path d="M7.7214 30.7088C6.28714 30.7088 4.98551 30.4386 3.81649 29.8983C2.64748 29.3482 1.71914 28.5574 1.03148 27.5259C0.343828 26.4846 0 25.2272 0 23.7536C0 22.4569 0.255415 21.4058 0.766245 20.6002C1.27708 19.7849 1.95982 19.1463 2.81448 18.6846C3.66914 18.2229 4.61221 17.8791 5.64369 17.6531C6.685 17.4174 7.73122 17.2307 8.78235 17.0932C10.1577 16.9163 11.2726 16.7837 12.1273 16.6953C12.9918 16.5971 13.6205 16.435 14.0134 16.209C14.4162 15.9831 14.6176 15.5901 14.6176 15.0302V14.9123C14.6176 13.4584 14.2197 12.3287 13.424 11.5232C12.6381 10.7176 11.4446 10.3148 9.84331 10.3148C8.18311 10.3148 6.88147 10.6783 5.9384 11.4053C4.99533 12.1322 4.33223 12.9083 3.94911 13.7335L0.648362 12.5546C1.23778 11.1793 2.02367 10.1085 3.00604 9.3423C3.99823 8.56623 5.07883 8.02593 6.24785 7.7214C7.42669 7.40704 8.58588 7.24986 9.72542 7.24986C10.4524 7.24986 11.2874 7.33827 12.2305 7.5151C13.1834 7.6821 14.1019 8.03084 14.986 8.56132C15.8799 9.0918 16.6216 9.89243 17.2111 10.9632C17.8005 12.034 18.0952 13.4682 18.0952 15.266V30.1783H14.6176V27.1133H14.4408C14.205 27.6045 13.8121 28.1301 13.2619 28.69C12.7118 29.2499 11.98 29.7264 11.0664 30.1193C10.1528 30.5123 9.03777 30.7088 7.7214 30.7088ZM8.25187 27.5848C9.62719 27.5848 10.7864 27.3147 11.7294 26.7744C12.6823 26.2341 13.3995 25.5366 13.8808 24.6819C14.372 23.8273 14.6176 22.9284 14.6176 21.9854V18.8025C14.4703 18.9793 14.1461 19.1414 13.6451 19.2888C13.1539 19.4263 12.5841 19.5491 11.9357 19.6571C11.2972 19.7554 10.6734 19.8438 10.0643 19.9224C9.4651 19.9911 8.97883 20.0501 8.60553 20.0992C7.70175 20.2171 6.85691 20.4087 6.07102 20.6739C5.29495 20.9293 4.66624 21.3173 4.18488 21.838C3.71334 22.3488 3.47758 23.0463 3.47758 23.9304C3.47758 25.1387 3.92455 26.0523 4.8185 26.6712C5.72228 27.2803 6.86674 27.5848 8.25187 27.5848Z" fill="black"/>
<path d="M27.9201 0V30.1783H24.4425V0H27.9201Z" fill="black"/>
<path d="M44.1328 7.54457V10.4917H32.4033V7.54457H44.1328ZM35.822 2.12191H39.2995V23.6947C39.2995 24.677 39.442 25.4138 39.7269 25.905C40.0216 26.3864 40.3949 26.7105 40.8468 26.8775C41.3085 27.0347 41.7948 27.1133 42.3056 27.1133C42.6887 27.1133 43.0031 27.0937 43.2487 27.0544C43.4943 27.0052 43.6907 26.9659 43.8381 26.9365L44.5454 30.0604C44.3096 30.1488 43.9805 30.2372 43.5581 30.3256C43.1357 30.4239 42.6003 30.473 41.9519 30.473C40.9696 30.473 40.0069 30.2618 39.0638 29.8394C38.1305 29.417 37.3545 28.7735 36.7356 27.909C36.1265 27.0445 35.822 25.9541 35.822 24.6377V2.12191Z" fill="black"/>
<path d="M64.5008 31.4621H59.7658L60.0347 28.6445C57.9419 31.088 55.2295 31.9181 52.7392 31.9181C46.7181 31.9181 43.047 27.9313 44.4733 21.2087C45.9698 14.1588 51.1842 10.4994 57.1586 10.4994C59.3215 10.4994 62.4314 11.6568 63.1797 13.773L65.5881 2.44394H70.6505L64.5008 31.4621ZM49.5357 21.2087C48.7758 24.7746 50.8335 27.2298 54.0603 27.2298C57.2521 27.2298 60.4906 24.9032 61.274 21.2087C62.0339 17.6428 59.8008 15.2344 56.6091 15.2344C53.3822 15.2344 50.3308 17.5142 49.5357 21.2087Z" fill="url(#paint0_linear_591_46234)"/>
<path d="M75.7362 13.3638C77.8524 10.8267 80.0504 10.4643 82.1198 10.4643C84.2359 10.4643 86.0949 11.2944 86.9717 12.4168L83.7566 16.8128C82.9031 15.9359 82.0496 15.4799 80.3894 15.4799C77.7355 15.4799 74.988 16.8946 74.1813 20.6709L71.8898 31.4622H66.8273L71.1766 11.0021H75.8648L75.7362 13.3638Z" fill="url(#paint1_linear_591_46234)"/>
<path d="M87.1238 10.9203H92.1862L87.8253 31.4621H82.7629L87.1238 10.9203ZM87.8721 5.22652C87.4629 7.17899 88.7372 8.17277 90.2337 8.17277C91.7302 8.17277 93.4372 7.17899 93.8464 5.22652C94.2673 3.23897 92.9812 2.28027 91.4847 2.28027C89.9882 2.28027 88.3046 3.23897 87.8721 5.22652Z" fill="url(#paint2_linear_591_46234)"/>
<path d="M102.779 31.544H97.3071L92.9228 10.967H98.4412L99.8208 17.7364L101.142 26.3647L106.076 17.8182L110.355 10.967H115.873L102.779 31.544Z" fill="url(#paint3_linear_591_46234)"/>
<path d="M123.168 27.3935C125.039 27.3935 127.635 26.692 129.049 25.4878L131.61 28.6796C128.979 30.9243 125.214 32 122.105 32C115.055 32 111.781 27.639 113.184 21.0918C114.505 14.872 119.696 10.3825 126.337 10.3825C132.639 10.3825 135.994 13.9483 134.462 21.1269C134.334 21.7115 134.194 22.3662 133.971 23.0326H118.001C117.79 25.5697 119.603 27.3935 123.168 27.3935ZM125.542 14.8603C122.806 14.8603 120.281 16.1931 118.971 18.8471H130.008C130.242 16.1814 128.441 14.8603 125.542 14.8603Z" fill="url(#paint4_linear_591_46234)"/>
<defs>
<linearGradient id="paint0_linear_591_46234" x1="354.512" y1="17.0997" x2="44.1832" y2="17.0997" gradientUnits="userSpaceOnUse">
<stop offset="0.00114093" stop-color="#F60E0E"/>
<stop offset="1" stop-color="#FFA800"/>
</linearGradient>
<linearGradient id="paint1_linear_591_46234" x1="350.196" y1="11.7302" x2="-57.804" y2="11.7302" gradientUnits="userSpaceOnUse">
<stop offset="0.00114093" stop-color="#F60E0E"/>
<stop offset="1" stop-color="#FFA800"/>
</linearGradient>
<linearGradient id="paint2_linear_591_46234" x1="466.939" y1="17.4148" x2="-269.232" y2="17.4148" gradientUnits="userSpaceOnUse">
<stop offset="0.00114093" stop-color="#F60E0E"/>
<stop offset="1" stop-color="#FFA800"/>
</linearGradient>
<linearGradient id="paint3_linear_591_46234" x1="209.692" y1="11.1974" x2="-148.425" y2="11.1974" gradientUnits="userSpaceOnUse">
<stop offset="0.00114093" stop-color="#F60E0E"/>
<stop offset="1" stop-color="#FFA800"/>
</linearGradient>
<linearGradient id="paint4_linear_591_46234" x1="134.823" y1="17.1409" x2="44.171" y2="17.1409" gradientUnits="userSpaceOnUse">
<stop offset="0.00114093" stop-color="#F60E0E"/>
<stop offset="1" stop-color="#FFA800"/>
</linearGradient>
</defs>
</svg>
